<svg xmlns="http://www.w3.org/2000/svg" width="30.328" height="26.402" viewBox="0 0 30.328 26.402">
  <g id="Group_23931" data-name="Group 23931" transform="translate(0.4 0.4)">
    <g id="Group_23932" data-name="Group 23932">
      <path id="Path_32639" data-name="Path 32639" d="M24.111,3.667,21.889,5s-4.619-.146-6.144,0a18.357,18.357,0,0,0-4.026,1.5,1.766,1.766,0,0,0-.878.909L9.113,11.436a2.071,2.071,0,0,0,.658,1.328,2.385,2.385,0,0,0,2.659,0,20.315,20.315,0,0,0,2.348-3.319h4" fill="none" stroke="#06c258" strokeLinecap="round" strokeLinejoin="round" strokeWidth="2"/>
      <path id="Path_32640" data-name="Path 32640" d="M28.556,10.333a13.533,13.533,0,0,0-4.444-6.667L28.556,1" fill="none" stroke="#06c258" strokeLinecap="round" strokeLinejoin="round" strokeWidth="2"/>
      <path id="Path_32641" data-name="Path 32641" d="M26.333,15.667a13.059,13.059,0,0,0,.7-1.8L28.555,13" fill="none" stroke="#06c258" strokeLinecap="round" strokeLinejoin="round" strokeWidth="2"/>
      <path id="Path_32642" data-name="Path 32642" d="M19.667,13l5.357,4.751a1.615,1.615,0,1,1-2.154,2.407l-4.536-3.6" fill="none" stroke="#44546f" strokeLinecap="round" strokeLinejoin="round" strokeWidth="2" opacity="0.2"/>
      <path id="Path_32643" data-name="Path 32643" d="M23.546,22.334a1.624,1.624,0,0,1-2.528.476l-3.574-2.7" fill="none" stroke="#44546f" strokeLinecap="round" strokeLinejoin="round" strokeWidth="2" opacity="0.2"/>
      <path id="Path_32644" data-name="Path 32644" d="M19.673,24.111A1.631,1.631,0,0,1,17.8,23.9l-.8-.679" fill="none" stroke="#44546f" strokeLinecap="round" strokeLinejoin="round" strokeWidth="2" opacity="0.2"/>
      <path id="Path_32645" data-name="Path 32645" d="M1,1,6.333,5a11.576,11.576,0,0,1,4.445-.444" fill="none" stroke="#44546f" strokeLinecap="round" strokeLinejoin="round" strokeWidth="2" opacity="0.2"/>
      <path id="Path_32646" data-name="Path 32646" d="M5.444,7.222S4.089,11.826,1,13.444a10.5,10.5,0,0,1,1.333,1.334" fill="none" stroke="#44546f" strokeLinecap="round" strokeLinejoin="round" strokeWidth="2" opacity="0.2"/>
      <path id="Path_32647" data-name="Path 32647" d="M7.127,16.218a1.324,1.324,0,0,1,.179.273,1.366,1.366,0,0,1-.342,1.65l-1.6,1.2a1.376,1.376,0,0,1-1.931-.164L3.2,18.9a1.377,1.377,0,0,1,.164-1.931l1.6-1.2a1.366,1.366,0,0,1,1.922.166Z" fill="none" stroke="#06c258" strokeLinecap="round" strokeLinejoin="round" strokeWidth="2"/>
      <path id="Path_32648" data-name="Path 32648" d="M9.444,16.492a1.39,1.39,0,0,1,1.029.493l.242.28a1.4,1.4,0,0,1-.17,1.965L7.952,21.288A1.391,1.391,0,0,1,6,21.12l-.242-.289a1.527,1.527,0,0,1-.113-1.7" fill="none" stroke="#06c258" strokeLinecap="round" strokeLinejoin="round" strokeWidth="2"/>
      <path id="Path_32649" data-name="Path 32649" d="M13,18.311a1.424,1.424,0,0,1,.406.329l.244.294a1.413,1.413,0,0,1-.169,1.987l-2.9,2.379A1.41,1.41,0,0,1,8.6,23.128l-.246-.294a1.425,1.425,0,0,1,.17-2" fill="none" stroke="#06c258" strokeLinecap="round" strokeLinejoin="round" strokeWidth="2"/>
      <path id="Path_32650" data-name="Path 32650" d="M14.97,21.922a1.341,1.341,0,0,1-.163,1.885l-1.121.88a1.333,1.333,0,0,1-1.885-.17l-.234-.271a1.353,1.353,0,0,1,.176-1.9" fill="none" stroke="#06c258" strokeLinecap="round" strokeLinejoin="round" strokeWidth="2"/>
    </g>
  </g>
</svg>
