<svg xmlns="http://www.w3.org/2000/svg" width="26.968" height="25.262" viewBox="0 0 26.968 25.262">
  <g id="Group_23928" data-name="Group 23928" transform="translate(0 -2.499)">
    <g id="Group_23927" data-name="Group 23927">
      <path id="Path_32636" data-name="Path 32636" d="M11.037,13.255H6.682A5.918,5.918,0,0,0,1,19.384V20.7c1.227-.161,8.62,0,8.62,0" transform="translate(0 1.474)" fill="none" stroke="#44546f" strokeLinecap="round" stroke-miterlimit="10" strokeWidth="2" opacity="0.2"/>
      <path id="Path_32637" data-name="Path 32637" d="M13.755,5.164A4.164,4.164,0,1,1,9.591,1,4.164,4.164,0,0,1,13.755,5.164Z" transform="translate(-0.731 2.499)" fill="none" stroke="#44546f" strokeLinecap="round" stroke-miterlimit="10" strokeWidth="2" opacity="0.2"/>
      <path id="Path_32635" data-name="Path 32635" d="M20.489,13.255a7.446,7.446,0,1,0,2.906.587A7.406,7.406,0,0,0,20.489,13.255Z" transform="translate(-1.986 -1.429)" fill="none" stroke="#9c64da" stroke-miterlimit="10" strokeWidth="2"/>
      <path id="Path_32638" data-name="Path 32638" d="M16.436,19.455,18.45,21.89l4.913-3.967" transform="translate(-1.06 -0.162)" fill="none" stroke="#9c64da" strokeLinecap="round" strokeLinejoin="round" strokeWidth="2"/>
    </g>
  </g>
</svg>
