<svg xmlns="http://www.w3.org/2000/svg" width="32.902" height="26" viewBox="0 0 32.902 26">
  <g id="Group_23923" data-name="Group 23923" transform="translate(-1.365)">
    <g id="Group_23924" data-name="Group 23924">
      <path id="Path_32633" data-name="Path 32633" d="M14.578,9.611a4.7,4.7,0,1,1-4.7-4.7A4.7,4.7,0,0,1,14.578,9.611Z" transform="translate(1.365 -1)" fill="none" stroke="#44546f" strokeLinecap="round" stroke-miterlimit="10" strokeWidth="2" opacity="0.2"/>
      <path id="Path_32634" data-name="Path 32634" d="M10.514,16.484c-.168-.014,1.06-.022.888-.022H7.417A6.684,6.684,0,0,0,1,23.384v1.488H8.951" transform="translate(1.365)" fill="none" stroke="#44546f" strokeLinecap="round" stroke-miterlimit="10" strokeWidth="2" opacity="0.2"/>
      <path id="Path_32631" data-name="Path 32631" d="M33.267,25V23.211c0-4.6-3.454-8.321-7.714-8.321H19.641c-4.261,0-7.715,3.726-7.715,8.321V25" fill="none" stroke="#44546f" strokeLinecap="round" stroke-miterlimit="10" strokeWidth="2"/>
      <path id="Path_32632" data-name="Path 32632" d="M28.25,6.654A5.653,5.653,0,1,1,22.6,1,5.654,5.654,0,0,1,28.25,6.654Z" fill="none" stroke="#44546f" strokeLinecap="round" stroke-miterlimit="10" strokeWidth="2"/>
    </g>
  </g>
</svg>
