<svg id="Component_133_1" data-name="Component 133 – 1" xmlns="http://www.w3.org/2000/svg" width="38" height="38" viewBox="0 0 38 38">
  <path id="Path_24329" data-name="Path 24329" d="M19,0A19,19,0,1,1,0,19,19,19,0,0,1,19,0Z" fill="none" opacity="0.1"/>
  <g id="Group_44350" data-name="Group 44350" transform="translate(-34.604 -315.603)">
    <g id="Group_44246" data-name="Group 44246" transform="translate(41 326)">
      <path id="Path_88451" data-name="Path 88451" d="M25.084,12V1.286A.536.536,0,0,0,24.548.75H10.619a.536.536,0,0,0-.535.536V2.358" transform="translate(-1.981 -0.147)" fill="none" stroke="#0c66e4" strokeLinecap="round" strokeLinejoin="round" strokeWidth="1.5"/>
      <path id="Path_88452" data-name="Path 88452" d="M15.362,14.751H28.067c0,1.607-1.071,2.143-2.678,2.143H16.978" transform="translate(-2.821 -2.898)" fill="none" stroke="#0c66e4" strokeLinecap="round" strokeLinejoin="round" strokeWidth="1.5"/>
      <path id="Path_88453" data-name="Path 88453" d="M6.631,11.181A2.971,2.971,0,0,1,3.417,8.425V7.506A2.971,2.971,0,0,1,6.631,4.751,2.971,2.971,0,0,1,9.845,7.506v.919A2.971,2.971,0,0,1,6.631,11.181Z" transform="translate(-0.671 -0.933)" fill="none" stroke="#0c66e4" strokeLinecap="round" strokeLinejoin="round" strokeWidth="1.5"/>
      <path id="Path_88454" data-name="Path 88454" d="M.75,19.571v-.964c0-2.643,3.451-3.857,5.357-3.857s5.357,1.192,5.357,3.835v.987" transform="translate(-0.147 -2.898)" fill="none" stroke="#0c66e4" strokeLinecap="round" strokeLinejoin="round" strokeWidth="1.5"/>
      <path id="Path_88455" data-name="Path 88455" d="M18.893,8.774a2.2,2.2,0,0,0,2.143-2.3V5.713a2.148,2.148,0,1,0-4.286,0v.766A2.2,2.2,0,0,0,18.893,8.774Z" transform="translate(-3.291 -0.671)" fill="none" stroke="#0c66e4" strokeLinecap="round" strokeLinejoin="round" strokeWidth="1.5" opacity="0"/>
      <path id="Path_88456" data-name="Path 88456" d="M21.845,12.226c0-1.467-2.071-2.143-3.214-2.143s-3.214.663-3.214,2.13" transform="translate(-3.029 -1.981)" fill="none" stroke="#0c66e4" strokeLinecap="round" strokeLinejoin="round" strokeWidth="1.5" opacity="0"/>
    </g>
  </g>
</svg>
