<?xml version="1.0" standalone="no"?>
<!DOCTYPE svg PUBLIC "-//W3C//DTD SVG 20010904//EN"
 "http://www.w3.org/TR/2001/REC-SVG-20010904/DTD/svg10.dtd">
<svg version="1.0" xmlns="http://www.w3.org/2000/svg"
 width="158.000000pt" height="158.000000pt" viewBox="0 0 158.000000 158.000000"
 preserveAspectRatio="xMidYMid meet">

<g transform="translate(0.000000,158.000000) scale(0.100000,-0.100000)"
fill="#0c66e4" stroke="none">
<path d="M314 1256 l-35 -35 3 -331 3 -332 33 -29 c29 -26 39 -29 102 -29 l70
0 0 -93 c0 -153 20 -154 199 -12 l132 105 225 0 c252 0 274 5 300 65 20 49 20
610 0 659 -29 68 -9 66 -529 66 l-469 0 -34 -34z m977 4 c46 -25 49 -51 49
-365 0 -314 -3 -340 -49 -365 -12 -6 -111 -10 -249 -10 l-229 0 -133 -105
c-73 -58 -141 -104 -149 -103 -13 3 -17 22 -19 106 l-3 102 -75 0 c-70 0 -78
2 -105 29 l-29 29 0 315 0 315 26 31 26 31 460 0 c296 0 466 -4 479 -10z"/>
<path d="M540 1000 c0 -6 100 -10 279 -10 176 0 282 4 286 10 4 7 -92 10 -279
10 -184 0 -286 -4 -286 -10z"/>
<path d="M540 860 c0 -6 52 -10 135 -10 83 0 135 4 135 10 0 6 -52 10 -135 10
-83 0 -135 -4 -135 -10z"/>
</g>
</svg>
