<svg xmlns="http://www.w3.org/2000/svg" width="23.048" height="22" viewBox="0 0 23.048 22">
  <g id="Group_44598" data-name="Group 44598" transform="translate(-0.957 -0.957)">
    <g id="Group_44605" data-name="Group 44605" transform="translate(0.957 0.957)">
      <g id="Path_89228" data-name="Path 89228" transform="translate(-2 -2)" fill="none" strokeLinecap="round" strokeLinejoin="round">
        <path d="M18.352,24H2V4.1A2.139,2.139,0,0,1,4.18,2H16.172a2.139,2.139,0,0,1,2.18,2.1Z" stroke="none"/>
        <path d="M 16.85196304321289 22.5 L 16.85196304321289 4.095240116119385 C 16.85196304321289 3.767019987106323 16.54680252075195 3.5 16.17170333862305 3.5 L 4.180263519287109 3.5 C 3.805163383483887 3.5 3.500003337860107 3.767019987106323 3.500003337860107 4.095240116119385 L 3.500003337860107 22.5 L 16.85196304321289 22.5 M 18.35196304321289 24 L 2.000003337860107 24 L 2.000003337860107 4.095240116119385 C 2.000003337860107 2.938139915466309 2.976213455200195 2 4.180263519287109 2 L 16.17170333862305 2 C 17.37575340270996 2 18.35196304321289 2.938139915466309 18.35196304321289 4.095240116119385 L 18.35196304321289 24 Z" stroke="none" fill="#44546f"/>
      </g>
      <g id="Path_89229" data-name="Path 89229" transform="translate(-17.136 -6.348)" fill="none" strokeLinecap="round" strokeLinejoin="round">
        <path d="M40.184,28.348H32V14h5.846a2.158,2.158,0,0,1,2.338,1.913Z" stroke="none"/>
        <path d="M 38.68393325805664 26.84782218933105 L 38.68393325805664 15.91304206848145 C 38.68393325805664 15.7868824005127 38.36723327636719 15.50000190734863 37.84566497802734 15.50000190734863 L 33.49999618530273 15.50000190734863 L 33.49999618530273 26.84782218933105 L 38.68393325805664 26.84782218933105 M 40.18393325805664 28.34782218933105 L 31.9999942779541 28.34782218933105 L 31.9999942779541 14.00000190734863 L 37.84566497802734 14.00000190734863 C 39.1369743347168 14.00000190734863 40.18393325805664 14.8565616607666 40.18393325805664 15.91304206848145 L 40.18393325805664 28.34782218933105 Z" stroke="none" fill="#44546f"/>
      </g>
      <line id="Line_358" data-name="Line 358" x2="5" transform="translate(5.674 4.429)" fill="none" stroke="#44546f" strokeLinecap="round" strokeLinejoin="round" strokeWidth="1.5"/>
      <line id="Line_359" data-name="Line 359" x2="5" transform="translate(5.674 8.81)" fill="none" stroke="#44546f" strokeLinecap="round" strokeLinejoin="round" strokeWidth="1.5"/>
      <line id="Line_360" data-name="Line 360" x2="5" transform="translate(5.674 12.095)" fill="none" stroke="#44546f" strokeLinecap="round" strokeLinejoin="round" strokeWidth="1.5"/>
    </g>
  </g>
</svg>
