<svg xmlns="http://www.w3.org/2000/svg" width="22.912" height="22" viewBox="0 0 22.912 22">
  <g id="Group_44603" data-name="Group 44603" transform="translate(-0.951 -0.951)">
    <g id="Group_44604" data-name="Group 44604" transform="translate(0.951 0.951)">
      <g id="Path_89232" data-name="Path 89232" transform="translate(-2 -2)" fill="none" strokeLinecap="round" strokeLinejoin="round">
        <path d="M15.375,3.193l2.38,4.822,5.322.773a2.14,2.14,0,0,1,1.186,3.651l-3.851,3.753.909,5.3a2.141,2.141,0,0,1-3.106,2.256l-4.76-2.5-4.76,2.5A2.141,2.141,0,0,1,5.59,21.493l.909-5.3L2.649,12.439A2.14,2.14,0,0,1,3.835,8.788l5.322-.773,2.38-4.822A2.14,2.14,0,0,1,15.375,3.193Z" stroke="none"/>
        <path d="M 13.45575046539307 3.499746322631836 C 13.30708026885986 3.499746322631836 13.03478050231934 3.546127319335938 12.88152027130127 3.856626510620117 L 10.50184059143066 8.678997039794922 C 10.28334999084473 9.121746063232422 9.860990524291992 9.42863655090332 9.372390747070312 9.499626159667969 L 4.050230026245117 10.27295684814453 C 3.707700729370117 10.32263660430908 3.579509735107422 10.56708717346191 3.533590316772461 10.70837688446045 C 3.487621307373047 10.84981727600098 3.447549819946289 11.12319660186768 3.695751190185547 11.36508655548096 L 7.54646110534668 15.11841678619385 C 7.90001106262207 15.46303653717041 8.061349868774414 15.95955657958984 7.977880477905273 16.4461669921875 L 7.068700790405273 21.74662780761719 C 7.035110473632812 21.94236755371094 7.079959869384766 22.1150074005127 7.201990127563477 22.25976753234863 C 7.328670501708984 22.41003608703613 7.514760971069336 22.49974632263184 7.69978141784668 22.49974632263184 C 7.800260543823242 22.49974632263184 7.897769927978516 22.47416687011719 7.997819900512695 22.42156600952148 L 12.75771045684814 19.91899681091309 C 13.19471073150635 19.68923568725586 13.71679019927979 19.68923568725586 14.15379047393799 19.91899681091309 L 18.91361999511719 22.42153739929199 C 19.01373100280762 22.47416687011719 19.11124038696289 22.49974632263184 19.21171951293945 22.49974632263184 C 19.39668083190918 22.49974632263184 19.58275985717773 22.4100170135498 19.7094612121582 22.25971603393555 C 19.83152008056641 22.11493682861328 19.87638092041016 21.94230651855469 19.8427906036377 21.74655723571777 L 18.93362045288086 16.4461669921875 C 18.85015106201172 15.95955657958984 19.01148986816406 15.46303653717041 19.36503982543945 15.11841678619385 L 23.21581077575684 11.36502647399902 C 23.46395111083984 11.12319660186768 23.42388153076172 10.84981727600098 23.37791061401367 10.70837688446045 C 23.33199119567871 10.56708717346191 23.20380020141602 10.32263660430908 22.8608512878418 10.2728967666626 L 17.53911018371582 9.499626159667969 C 17.05051040649414 9.42863655090332 16.62815093994141 9.121746063232422 16.40966033935547 8.678997039794922 L 14.03006076812744 3.856786727905273 C 13.8767204284668 3.546127319335938 13.60442066192627 3.499746322631836 13.45575046539307 3.499746322631836 M 13.45575428009033 1.999746322631836 C 14.2191276550293 1.999746322631836 14.98250007629395 2.39744758605957 15.37512016296387 3.192846298217773 L 17.75480079650879 8.015216827392578 L 23.07653999328613 8.788486480712891 C 24.83241081237793 9.043117523193359 25.53329086303711 11.20097732543945 24.26274108886719 12.43924713134766 L 20.41203117370605 16.19257736206055 L 21.32120132446289 21.49296760559082 C 21.62112998962402 23.24102783203125 19.78560256958008 24.57458686828613 18.21564102172852 23.74924659729004 L 13.45575046539307 21.24667739868164 L 8.695859909057617 23.74924659729004 C 7.125909805297852 24.5745849609375 5.290370941162109 23.24102783203125 5.590299606323242 21.49296760559082 L 6.499469757080078 16.19257736206055 L 2.648759841918945 12.43924713134766 C 1.378210067749023 11.20097732543945 2.079090118408203 9.043117523193359 3.8349609375 8.788486480712891 L 9.156700134277344 8.015216827392578 L 11.53638076782227 3.192846298217773 C 11.92900562286377 2.39744758605957 12.69238090515137 1.999746322631836 13.45575428009033 1.999746322631836 Z" stroke="none" fill="#44546f"/>
      </g>
    </g>
  </g>
</svg>
