<svg xmlns="http://www.w3.org/2000/svg" width="21.909" height="22" viewBox="0 0 21.909 22">
  <g id="Group_44600" data-name="Group 44600" transform="translate(-1 -0.917)">
    <g id="Group_44601" data-name="Group 44601" transform="translate(1 0.917)">
      <g id="Rectangle_63945" data-name="Rectangle 63945" transform="translate(0 4.083)" fill="none" stroke="#44546f" strokeLinecap="round" strokeLinejoin="round" strokeWidth="1.5">
        <rect width="21.909" height="17.917" rx="3" stroke="none"/>
        <rect x="0.75" y="0.75" width="20.409" height="16.417" rx="2.25" fill="none"/>
      </g>
      <g id="Path_89230" data-name="Path 89230" transform="translate(-7.629 -2)" fill="none" strokeLinecap="round" strokeLinejoin="round">
        <path d="M23.167,7.527H14V5.316A3.073,3.073,0,0,1,16.75,2h3.667a3.073,3.073,0,0,1,2.75,3.316Z" stroke="none"/>
        <path d="M 21.66666221618652 6.027099609375 L 21.66666221618652 5.316259860992432 C 21.66666221618652 4.348719596862793 21.08255195617676 3.499999761581421 20.41666221618652 3.499999761581421 L 16.75000190734863 3.499999761581421 C 16.0841121673584 3.499999761581421 15.50000190734863 4.348719596862793 15.50000190734863 5.316259860992432 L 15.50000190734863 6.027099609375 L 21.66666221618652 6.027099609375 M 23.16666221618652 7.527099609375 L 14.00000190734863 7.527099609375 L 14.00000190734863 5.316259860992432 C 14.00000190734863 3.484579801559448 15.23108196258545 1.999999761581421 16.75000190734863 1.999999761581421 L 20.41666221618652 1.999999761581421 C 21.93558120727539 1.999999761581421 23.16666221618652 3.484579801559448 23.16666221618652 5.316259860992432 L 23.16666221618652 7.527099609375 Z" stroke="none" fill="#44546f"/>
      </g>
      <path id="Path_89231" data-name="Path 89231" d="M21.508,22l-7.936,3.1a4.975,4.975,0,0,1-3.636,0L2,22" transform="translate(-0.671 -11.047)" fill="none" stroke="#44546f" strokeLinecap="round" strokeLinejoin="round" strokeWidth="1.5"/>
    </g>
  </g>
</svg>
