<svg xmlns="http://www.w3.org/2000/svg" width="25" height="25" viewBox="0 0 25 25">
  <g id="Group_44951" data-name="Group 44951" transform="translate(71 -503)">
    <rect id="Rectangle_63938" data-name="Rectangle 63938" width="25" height="25" transform="translate(-71 503)" fill="none"/>
    <g id="Group_44940" data-name="Group 44940" transform="translate(-68.75 505.25)">
      <g id="Group_44579" data-name="Group 44579">
        <path id="Path_89205" data-name="Path 89205" d="M10.3,18.477a1.863,1.863,0,0,1-1.818-1.948v-.65a1.822,1.822,0,1,1,3.636,0v.65A1.863,1.863,0,0,1,10.3,18.477Z" fill="none" stroke="#0c66e4" strokeLinecap="round" stroke-miterlimit="10" strokeWidth="1.5"/>
        <path id="Path_89206" data-name="Path 89206" d="M7.114,20.75V20.3c0-1.245,2.05-1.818,3.182-1.818s3.182.562,3.182,1.808v.465" fill="none" stroke="#0c66e4" strokeLinecap="round" stroke-miterlimit="10" strokeWidth="1.5"/>
        <path id="Path_89207" data-name="Path 89207" d="M3.932,18.477a1.863,1.863,0,0,1-1.818-1.948v-.65a1.862,1.862,0,0,1,1.818-1.947A1.862,1.862,0,0,1,5.75,15.879v.65A1.863,1.863,0,0,1,3.932,18.477Z" fill="none" stroke="#0c66e4" strokeLinecap="round" stroke-miterlimit="10" strokeWidth="1.5"/>
        <path id="Path_89208" data-name="Path 89208" d="M.75,20.75V20.3c0-1.245,2.05-1.818,3.182-1.818s3.182.562,3.182,1.808v.465" fill="none" stroke="#0c66e4" strokeLinecap="round" stroke-miterlimit="10" strokeWidth="1.5"/>
        <path id="Path_89209" data-name="Path 89209" d="M16.659,18.477a1.863,1.863,0,0,1-1.818-1.948v-.65a1.822,1.822,0,1,1,3.636,0v.65A1.863,1.863,0,0,1,16.659,18.477Z" fill="none" stroke="#0c66e4" strokeLinecap="round" stroke-miterlimit="10" strokeWidth="1.5"/>
        <path id="Path_89210" data-name="Path 89210" d="M13.477,20.75V20.3c0-1.245,2.05-1.818,3.182-1.818s3.182.562,3.182,1.808v.465" fill="none" stroke="#0c66e4" strokeLinecap="round" stroke-miterlimit="10" strokeWidth="1.5"/>
        <path id="Path_89211" data-name="Path 89211" d="M16,12.3a6.6,6.6,0,0,0,.706-1.7l1.769-.411V7.685l-1.769-.41A6.6,6.6,0,0,0,16,5.569l.96-1.541L15.2,2.265l-1.541.96a6.633,6.633,0,0,0-1.7-.706L11.542.75H9.048l-.41,1.769a6.64,6.64,0,0,0-1.706.706l-1.541-.96L3.628,4.028l.96,1.541a6.6,6.6,0,0,0-.706,1.706l-1.769.41v2.494l1.769.411a6.6,6.6,0,0,0,.706,1.7" fill="none" stroke="#0c66e4" strokeLinecap="round" strokeLinejoin="round" strokeWidth="1.5"/>
        <path id="Path_89212" data-name="Path 89212" d="M12.568,8.932A2.273,2.273,0,1,1,10.3,6.659,2.273,2.273,0,0,1,12.568,8.932Z" fill="none" stroke="#0c66e4" strokeLinecap="round" strokeLinejoin="round" strokeWidth="1.5"/>
      </g>
    </g>
  </g>
</svg>
