<?xml version="1.0" standalone="no"?>
<!DOCTYPE svg PUBLIC "-//W3C//DTD SVG 20010904//EN"
 "http://www.w3.org/TR/2001/REC-SVG-20010904/DTD/svg10.dtd">
<svg version="1.0" xmlns="http://www.w3.org/2000/svg"
 width="158.000000pt" height="158.000000pt" viewBox="0 0 158.000000 158.000000"
 preserveAspectRatio="xMidYMid meet">

<g transform="translate(0.000000,158.000000) scale(0.100000,-0.100000)"
fill="#0c66e4" stroke="none">
<path d="M726 1298 c-13 -18 -16 -54 -16 -180 0 -87 4 -158 8 -158 4 0 31 24
60 53 l52 53 0 110 c0 95 -3 113 -18 127 -26 24 -68 21 -86 -5z"/>
<path d="M702 862 c-381 -377 -463 -462 -462 -483 0 -33 21 -51 53 -47 17 2
170 146 486 457 382 375 461 458 461 480 0 15 -5 32 -12 39 -36 36 -51 24
-526 -446z"/>
<path d="M910 1283 c-30 -11 -40 -37 -40 -107 l0 -70 55 54 c60 59 69 89 33
114 -24 17 -25 17 -48 9z"/>
<path d="M590 1243 c-8 -3 -18 -11 -22 -17 -4 -6 -8 -103 -8 -215 l0 -204 53
45 52 46 3 158 c3 152 2 160 -19 177 -22 18 -33 20 -59 10z"/>
<path d="M1083 1008 c-48 -49 -52 -57 -55 -108 -3 -47 -6 -55 -23 -55 -14 0
-21 8 -23 28 -2 15 -6 27 -10 27 -4 0 -103 -96 -221 -214 l-214 -214 22 -27
c59 -76 154 -115 280 -115 111 0 171 20 225 74 71 71 77 103 74 399 l-3 258
-52 -53z"/>
<path d="M369 840 c-31 -18 -32 -57 -3 -111 41 -75 46 -76 98 -28 25 24 46 48
46 55 0 7 -17 31 -38 54 -39 40 -70 49 -103 30z"/>
</g>
</svg>
