<svg xmlns="http://www.w3.org/2000/svg" width="15.952" height="15.953" viewBox="0 0 15.952 15.953">
  <path id="Path_90185" data-name="Path 90185" d="M12.387,15.953a3.571,3.571,0,0,0,3.566-3.567V.854a.854.854,0,1,0-1.708,0V12.386a1.862,1.862,0,0,1-1.859,1.858H.856a.855.855,0,1,0,0,1.709Zm-9.5-4.07a.855.855,0,0,0,.854-.854V6.96a.854.854,0,1,0-1.708,0v4.07a.855.855,0,0,0,.853.854m4.07,0a.855.855,0,0,0,.854-.854V3.567a.854.854,0,1,0-1.708,0v7.462a.855.855,0,0,0,.853.854m4.07,0a.855.855,0,0,0,.855-.854V6.96a.854.854,0,1,0-1.709,0v4.07a.855.855,0,0,0,.853.854" transform="translate(-0.001)" fill="#fff"/>
</svg>
