<svg id="Group_48378" data-name="Group 48378" xmlns="http://www.w3.org/2000/svg" xmlns:xlink="http://www.w3.org/1999/xlink" width="20" height="20" viewBox="0 0 20 20">
  <defs>
    <clipPath id="clip-path">
      <rect id="Rectangle_137968" data-name="Rectangle 137968" width="20" height="20" fill="#495057"/>
    </clipPath>
  </defs>
  <g id="Group_48371" data-name="Group 48371" clip-path="url(#clip-path)">
    <path id="Path_93184" data-name="Path 93184" d="M20,8.333v7.5A4.168,4.168,0,0,1,15.833,20H4.167A4.168,4.168,0,0,1,0,15.833V6.667A4.168,4.168,0,0,1,4.167,2.5h6.667a.833.833,0,0,1,0,1.667H4.167A2.514,2.514,0,0,0,1.958,5.492l6.275,6.275a2.5,2.5,0,0,0,3.533,0L14.95,8.583a.831.831,0,0,1,1.175,1.175l-3.183,3.183a4.185,4.185,0,0,1-5.9,0L1.667,7.558v8.275a2.507,2.507,0,0,0,2.5,2.5H15.833a2.507,2.507,0,0,0,2.5-2.5v-7.5a.833.833,0,0,1,1.667,0m-6.667-5a3.333,3.333,0,1,1,3.333,3.333,3.332,3.332,0,0,1-3.333-3.333m1.667,0a1.667,1.667,0,1,0,1.667-1.667A1.672,1.672,0,0,0,15,3.333" fill="#495057"/>
  </g>
</svg>
