<svg xmlns="http://www.w3.org/2000/svg" xmlns:xlink="http://www.w3.org/1999/xlink" width="20" height="20" viewBox="0 0 20 20">
  <defs>
    <clipPath id="clip-path">
      <rect id="Rectangle_137951" data-name="Rectangle 137951" width="20" height="20" fill="#495057"/>
    </clipPath>
  </defs>
  <g id="Group_48334" data-name="Group 48334" clip-path="url(#clip-path)">
    <path id="Path_93155" data-name="Path 93155" d="M6.666,0h-2.5A4.171,4.171,0,0,0,0,4.166v2.5A1.668,1.668,0,0,0,1.666,8.333h5A1.668,1.668,0,0,0,8.333,6.666v-5A1.668,1.668,0,0,0,6.666,0m-5,6.666v-2.5a2.5,2.5,0,0,1,2.5-2.5h2.5v5Zm10,1.666h5a1.668,1.668,0,0,0,1.666-1.666v-2.5A4.171,4.171,0,0,0,14.166,0h-2.5A1.668,1.668,0,0,0,10,1.666v5a1.668,1.668,0,0,0,1.666,1.666m0-6.666h2.5a2.5,2.5,0,0,1,2.5,2.5v2.5h-5ZM6.666,10h-5A1.668,1.668,0,0,0,0,11.666v2.5a4.171,4.171,0,0,0,4.166,4.166h2.5a1.668,1.668,0,0,0,1.666-1.666v-5A1.668,1.668,0,0,0,6.666,10m-2.5,6.666a2.5,2.5,0,0,1-2.5-2.5v-2.5h5v5Zm15.589,1.911-2.116-2.117a4.177,4.177,0,1,0-1.178,1.178l2.117,2.116a.833.833,0,0,0,1.178-1.178m-8.089-4.411a2.5,2.5,0,1,1,2.5,2.5,2.5,2.5,0,0,1-2.5-2.5" fill="#495057"/>
  </g>
</svg>
