<svg xmlns="http://www.w3.org/2000/svg" xmlns:xlink="http://www.w3.org/1999/xlink" width="20" height="20" viewBox="0 0 20 20">
  <defs>
    <clipPath id="clip-path">
      <rect id="Rectangle_137950" data-name="Rectangle 137950" width="20" height="20" fill="#495057"/>
    </clipPath>
  </defs>
  <g id="Group_48332" data-name="Group 48332" clip-path="url(#clip-path)">
    <path id="Path_93154" data-name="Path 93154" d="M16.667,0H3.334A3.334,3.334,0,0,0,0,3.334v10a3.334,3.334,0,0,0,3.334,3.334H5.75L9.46,19.8a.834.834,0,0,0,1.076,0l3.714-3.136h2.417A3.334,3.334,0,0,0,20,13.334v-10A3.334,3.334,0,0,0,16.667,0m1.666,13.334A1.666,1.666,0,0,1,16.667,15H14.25a1.672,1.672,0,0,0-1.076.394L10,18.075,6.828,15.394A1.672,1.672,0,0,0,5.75,15H3.334a1.666,1.666,0,0,1-1.666-1.666v-10A1.666,1.666,0,0,1,3.334,1.667H16.667a1.666,1.666,0,0,1,1.666,1.666Zm-12.5-7.5H10a.833.833,0,0,0,0-1.666H5.834a.833.833,0,0,0,0,1.666M14.167,7.5H5.834a.834.834,0,0,0,0,1.667h8.334a.834.834,0,0,0,0-1.667m0,3.334H5.834a.833.833,0,0,0,0,1.666h8.334a.833.833,0,1,0,0-1.666" fill="#495057"/>
  </g>
</svg>
