<svg id="Group_48363" data-name="Group 48363" xmlns="http://www.w3.org/2000/svg" xmlns:xlink="http://www.w3.org/1999/xlink" width="21.818" height="20" viewBox="0 0 21.818 20">
  <defs>
    <clipPath id="clip-path">
      <rect id="Rectangle_137964" data-name="Rectangle 137964" width="21.818" height="20" fill="#495057"/>
    </clipPath>
  </defs>
  <g id="Group_48358" data-name="Group 48358" clip-path="url(#clip-path)">
    <path id="Path_93180" data-name="Path 93180" d="M17.273,0H8.182A4.547,4.547,0,0,0,3.636,4.545v7.273a4.547,4.547,0,0,0,4.546,4.546h9.091a4.547,4.547,0,0,0,4.546-4.546V4.545A4.547,4.547,0,0,0,17.273,0M8.182,1.818h9.091a2.74,2.74,0,0,1,2.036.909L14.655,7.382a2.727,2.727,0,0,1-3.855,0L6.146,2.727a2.707,2.707,0,0,1,2.036-.909m9.091,12.727H8.182a2.735,2.735,0,0,1-2.727-2.727V4.609L9.509,8.664a4.565,4.565,0,0,0,6.436,0L20,4.609v7.209a2.735,2.735,0,0,1-2.727,2.727m0,4.546a.912.912,0,0,1-.909.909H4.546A4.547,4.547,0,0,1,0,15.454v-10a.909.909,0,0,1,1.818,0v10a2.735,2.735,0,0,0,2.727,2.727H16.364a.912.912,0,0,1,.909.909" fill="#495057"/>
  </g>
</svg>
