<svg xmlns="http://www.w3.org/2000/svg" xmlns:xlink="http://www.w3.org/1999/xlink" width="21.818" height="20" viewBox="0 0 21.818 20">
  <defs>
    <clipPath id="clip-path">
      <rect id="Rectangle_137949" data-name="Rectangle 137949" width="21.818" height="20" fill="#495057"/>
    </clipPath>
  </defs>
  <g id="Group_48330" data-name="Group 48330" clip-path="url(#clip-path)">
    <path id="Path_93153" data-name="Path 93153" d="M17.273,0H4.546A4.551,4.551,0,0,0,0,4.545V15.454A4.551,4.551,0,0,0,4.546,20H17.273a4.55,4.55,0,0,0,4.545-4.545V4.545A4.55,4.55,0,0,0,17.273,0M4.546,1.818H17.273A2.729,2.729,0,0,1,19.8,3.534L12.839,10.5a2.734,2.734,0,0,1-3.858,0L2.019,3.534A2.728,2.728,0,0,1,4.546,1.818M17.273,18.181H4.546a2.727,2.727,0,0,1-2.727-2.727V5.908l5.876,5.873a4.553,4.553,0,0,0,6.429,0L20,5.908v9.546a2.727,2.727,0,0,1-2.727,2.727" transform="translate(0 0)" fill="#495057"/>
  </g>
</svg>
