<svg xmlns="http://www.w3.org/2000/svg" width="21.97" height="18" viewBox="0 0 21.97 18">
  <path id="Path_90175" data-name="Path 90175" d="M8.211,6.7a.457.457,0,0,1-.135.507l-1.083.884L7.44,9.457a.457.457,0,0,1-.683.527L5.5,9.163l-1.238.829a.458.458,0,0,1-.636-.126.463.463,0,0,1-.056-.392L4,8.093,2.914,7.208a.458.458,0,0,1,.3-.807H4.582l.486-1.364a.458.458,0,0,1,.858,0L6.414,6.4H7.787a.459.459,0,0,1,.424.3m5.063-.3H11.9l-.486-1.364a.459.459,0,0,0-.858,0L10.07,6.4H8.7a.458.458,0,0,0-.43.3.451.451,0,0,0,.133.505l1.089.885L9.06,9.474a.457.457,0,0,0,.157.5.469.469,0,0,0,.275.091.457.457,0,0,0,.254-.077l1.24-.829,1.255.821a.458.458,0,0,0,.634-.137.463.463,0,0,0,.05-.391l-.447-1.364,1.083-.884a.459.459,0,0,0-.3-.808Zm5.493,0H17.393l-.486-1.364a.459.459,0,0,0-.858,0L15.561,6.4H14.188a.459.459,0,0,0-.3.807l1.089.885-.432,1.381a.459.459,0,0,0,.3.574.443.443,0,0,0,.137.02.457.457,0,0,0,.254-.077l1.24-.829,1.255.821a.458.458,0,0,0,.634-.137.463.463,0,0,0,.05-.391l-.449-1.364,1.083-.884a.457.457,0,0,0-.293-.808Zm3.2-2.74v7.324a3.669,3.669,0,0,1-3.663,3.663H15.693l-3.518,2.909A1.771,1.771,0,0,1,10.993,18a1.844,1.844,0,0,1-1.224-.471L6.337,14.646H3.661A3.666,3.666,0,0,1,0,10.985V3.663A3.667,3.667,0,0,1,3.661,0H18.308A3.669,3.669,0,0,1,21.97,3.663Zm-1.831,0A1.834,1.834,0,0,0,18.308,1.83H3.661a1.833,1.833,0,0,0-1.83,1.831v7.324a1.832,1.832,0,0,0,1.83,1.83h3.01a.926.926,0,0,1,.592.215l3.705,3.121,3.818-3.126a.905.905,0,0,1,.582-.21h2.941a1.833,1.833,0,0,0,1.831-1.83V3.663Z" fill="#fff"/>
</svg>
