<svg id="Group_48322" data-name="Group 48322" xmlns="http://www.w3.org/2000/svg" xmlns:xlink="http://www.w3.org/1999/xlink" width="24" height="20" viewBox="0 0 24 20">
  <defs>
    <clipPath id="clip-path">
      <rect id="Rectangle_137945" data-name="Rectangle 137945" width="24" height="20" fill="#495057"/>
    </clipPath>
  </defs>
  <g id="Group_48321" data-name="Group 48321" clip-path="url(#clip-path)">
    <path id="Path_93149" data-name="Path 93149" d="M19,6H14a1,1,0,0,0,0,2h5a1,1,0,1,0,0-2m0,4H14a1,1,0,0,0,0,2h5a1,1,0,0,0,0-2m-2,4H14a1,1,0,0,0,0,2h3a1,1,0,1,0,0-2M10,6H5A1,1,0,0,0,4,7v8a1,1,0,0,0,1,1h5a1,1,0,0,0,1-1V7a1,1,0,0,0-1-1M9,14H6V8H9ZM19,0H5A5.006,5.006,0,0,0,0,5V15a5.006,5.006,0,0,0,5,5H19a5.006,5.006,0,0,0,5-5V5a5.006,5.006,0,0,0-5-5m3,5V15a3,3,0,0,1-3,3H5a3,3,0,0,1-3-3V5A3,3,0,0,1,5,2H19a3,3,0,0,1,3,3" fill="#495057"/>
  </g>
</svg>
