<svg xmlns="http://www.w3.org/2000/svg" width="20" height="20" viewBox="0 0 20 20">
  <path id="Path_90651" data-name="Path 90651" d="M6.667,10H5a1.668,1.668,0,0,0-1.667,1.667v1.667A1.668,1.668,0,0,0,5,15H6.667a1.668,1.668,0,0,0,1.667-1.667V11.667A1.668,1.668,0,0,0,6.667,10M5,11.667H6.667v1.667H5Zm10.833-10H15V.833a.833.833,0,0,0-1.667,0v.833H6.667V.833A.833.833,0,1,0,5,.833v.833H4.167A4.171,4.171,0,0,0,0,5.833v10A4.171,4.171,0,0,0,4.167,20H15.833A4.171,4.171,0,0,0,20,15.833v-10a4.171,4.171,0,0,0-4.167-4.167M4.167,3.333H15.833a2.5,2.5,0,0,1,2.5,2.5v.833H1.667V5.833a2.5,2.5,0,0,1,2.5-2.5m11.667,15H4.167a2.5,2.5,0,0,1-2.5-2.5v-7.5H18.333v7.5a2.5,2.5,0,0,1-2.5,2.5" fill="#495057"/>
</svg>
