<svg xmlns="http://www.w3.org/2000/svg" width="13.584" height="13.5" viewBox="0 0 13.584 13.5">
  <g id="Group_44514" data-name="Group 44514" transform="translate(-0.25 -0.333)">
    <g id="Group_44515" data-name="Group 44515" transform="translate(1 1.083)">
      <line id="Line_326" data-name="Line 326" x2="5.609" transform="translate(6.475 2.979)" fill="none" stroke="#0171b5" strokeLinecap="round" strokeLinejoin="round" strokeWidth="1.5"/>
      <line id="Line_327" data-name="Line 327" x1="6.119" transform="translate(0 9.524)" fill="none" stroke="#0171b5" strokeLinecap="round" strokeLinejoin="round" strokeWidth="1.5"/>
      <path id="Path_89079" data-name="Path 89079" d="M9.657,7.524h0A1.657,1.657,0,0,1,8,5.867V3.657a1.657,1.657,0,0,1,3.314,0v2.21A1.657,1.657,0,0,1,9.657,7.524Z" transform="translate(-6.3 -2)" fill="none" stroke="#0171b5" strokeLinecap="round" strokeLinejoin="round" strokeWidth="1.5"/>
      <path id="Path_89080" data-name="Path 89080" d="M31.657,31.524h0A1.657,1.657,0,0,1,30,29.867v-2.21a1.657,1.657,0,0,1,3.314,0v2.21A1.657,1.657,0,0,1,31.657,31.524Z" transform="translate(-22.378 -19.524)" fill="none" stroke="#0171b5" strokeLinecap="round" strokeLinejoin="round" strokeWidth="1.5"/>
      <line id="Line_328" data-name="Line 328" x2="1.53" transform="translate(0 2.979)" fill="none" stroke="#0171b5" strokeLinecap="round" strokeLinejoin="round" strokeWidth="1.5"/>
      <line id="Line_329" data-name="Line 329" x1="1.02" transform="translate(11.064 9.524)" fill="none" stroke="#0171b5" strokeLinecap="round" strokeLinejoin="round" strokeWidth="1.5"/>
    </g>
  </g>
</svg>
