<svg id="Group_48380" data-name="Group 48380" xmlns="http://www.w3.org/2000/svg" xmlns:xlink="http://www.w3.org/1999/xlink" width="20" height="20" viewBox="0 0 20 20">
  <defs>
    <clipPath id="clip-path">
      <rect id="Rectangle_137967" data-name="Rectangle 137967" width="20" height="20" fill="#495057"/>
    </clipPath>
  </defs>
  <g id="Group_48369" data-name="Group 48369" clip-path="url(#clip-path)">
    <path id="Path_93183" data-name="Path 93183" d="M15.833,8.333a4.167,4.167,0,1,0-2.947-1.218,4.167,4.167,0,0,0,2.947,1.218m1.768-2.4a2.5,2.5,0,0,1-2.838.48l3.32-3.32A2.5,2.5,0,0,1,17.6,5.935ZM14.065,2.4A2.5,2.5,0,0,1,16.9,1.917l-3.32,3.32A2.5,2.5,0,0,1,14.065,2.4M20,10v5.833A4.171,4.171,0,0,1,15.833,20H4.167A4.171,4.171,0,0,1,0,15.833V6.667A4.171,4.171,0,0,1,4.167,2.5h5a.833.833,0,1,1,0,1.667h-5A2.492,2.492,0,0,0,1.967,5.5l6.264,6.265a2.507,2.507,0,0,0,3.537,0l1.558-1.53a.833.833,0,0,1,1.167,1.19L12.94,12.948a4.167,4.167,0,0,1-5.887-.005L1.667,7.559v8.274a2.5,2.5,0,0,0,2.5,2.5H15.833a2.5,2.5,0,0,0,2.5-2.5V10A.833.833,0,0,1,20,10" transform="translate(0 0)" fill="#495057"/>
  </g>
</svg>
