<svg xmlns="http://www.w3.org/2000/svg" width="20.028" height="20" viewBox="0 0 20.028 20">
  <path id="Path_90186" data-name="Path 90186" d="M4.237,9.885H8.219A1.69,1.69,0,0,0,9.909,8.2v-4A2.536,2.536,0,0,1,10.9,2.185,2.424,2.424,0,0,1,13,1.734,9.269,9.269,0,1,1,1.764,12.975a2.431,2.431,0,0,1,.45-2.1,2.583,2.583,0,0,1,2.023-.99M3.4,12.562a7.579,7.579,0,1,0,9.176-9.183.735.735,0,0,0-.646.145.862.862,0,0,0-.338.681V8.2a3.38,3.38,0,0,1-3.38,3.38H4.229a.881.881,0,0,0-.69.338.75.75,0,0,0-.14.649ZM.064,6.038A8.514,8.514,0,0,1,6.037.06,1.787,1.787,0,0,1,6.5,0,1.69,1.69,0,0,1,8.2,1.673V5.661A2.535,2.535,0,0,1,5.671,8.2H1.681A1.7,1.7,0,0,1,0,6.486a1.721,1.721,0,0,1,.064-.445m2.111.468h3.5a.845.845,0,0,0,.845-.845l0-3.965A.038.038,0,0,0,6.5,1.692H6.48A6.82,6.82,0,0,0,1.68,6.51Z" transform="translate(0 0)" fill="#a6b0cf"/>
</svg>
