<svg xmlns="http://www.w3.org/2000/svg" width="24" height="24" viewBox="0 0 24 24">
  <path id="Path_93191" data-name="Path 93191" d="M22.772,9.481l-1.685-.286a9.583,9.583,0,0,0-.677-1.635L21.4,6.172a1.478,1.478,0,0,0-.16-1.91L19.749,2.768A1.471,1.471,0,0,0,18.7,2.331a1.457,1.457,0,0,0-.857.276L16.45,3.6a9.335,9.335,0,0,0-1.694-.7l-.28-1.665A1.482,1.482,0,0,0,13.011,0H10.9A1.481,1.481,0,0,0,9.436,1.238l-.291,1.7a9.246,9.246,0,0,0-1.629.687L6.137,2.637a1.482,1.482,0,0,0-1.91.16l-1.5,1.494a1.486,1.486,0,0,0-.16,1.91l1,1.409A9.328,9.328,0,0,0,2.9,9.25l-1.665.281A1.482,1.482,0,0,0,0,10.995V13.1a1.481,1.481,0,0,0,1.238,1.464l1.7.291a9.355,9.355,0,0,0,.686,1.63l-.987,1.374a1.477,1.477,0,0,0,.16,1.909L4.3,21.268a1.476,1.476,0,0,0,1.906.16l1.408-1a9.445,9.445,0,0,0,1.584.652l.281,1.685A1.481,1.481,0,0,0,10.94,24h2.116a1.482,1.482,0,0,0,1.464-1.238l.285-1.685A9.519,9.519,0,0,0,16.44,20.4l1.389.993a1.481,1.481,0,0,0,1.909-.16l1.495-1.494a1.486,1.486,0,0,0,.16-1.91L20.4,16.434a9.475,9.475,0,0,0,.677-1.634l1.684-.281A1.481,1.481,0,0,0,24,13.055v-2.11a1.461,1.461,0,0,0-1.228-1.464m-.115,3.574a.13.13,0,0,1-.11.131l-2.106.351a.673.673,0,0,0-.541.5,8.027,8.027,0,0,1-.872,2.1.678.678,0,0,0,.03.737L20.3,18.615a.135.135,0,0,1-.015.17L18.786,20.28a.13.13,0,0,1-.1.04.122.122,0,0,1-.076-.026l-1.74-1.238a.678.678,0,0,0-.736-.03,8.036,8.036,0,0,1-2.1.873.666.666,0,0,0-.5.541l-.355,2.105a.13.13,0,0,1-.131.11H10.945a.13.13,0,0,1-.131-.11l-.35-2.105a.673.673,0,0,0-.5-.541,8.314,8.314,0,0,1-2.056-.843.7.7,0,0,0-.341-.09.658.658,0,0,0-.391.126L5.425,20.34a.147.147,0,0,1-.075.026.136.136,0,0,1-.1-.04L3.76,18.83a.135.135,0,0,1-.014-.17l1.233-1.73a.686.686,0,0,0,.031-.742,7.946,7.946,0,0,1-.883-2.1.686.686,0,0,0-.541-.5l-2.121-.361a.13.13,0,0,1-.11-.131v-2.11a.13.13,0,0,1,.11-.131l2.091-.351a.677.677,0,0,0,.546-.5,8.039,8.039,0,0,1,.857-2.105.67.67,0,0,0-.035-.732L3.675,5.419a.137.137,0,0,1,.015-.17L5.184,3.756a.128.128,0,0,1,.1-.04.121.121,0,0,1,.075.025l1.73,1.234A.688.688,0,0,0,7.827,5a7.944,7.944,0,0,1,2.1-.882.688.688,0,0,0,.5-.541l.361-2.121a.129.129,0,0,1,.13-.11H13.02a.13.13,0,0,1,.131.11l.351,2.09A.678.678,0,0,0,14,4.1a8.117,8.117,0,0,1,2.15.882.678.678,0,0,0,.737-.031L18.621,3.7A.154.154,0,0,1,18.7,3.68a.132.132,0,0,1,.1.04l1.495,1.494a.136.136,0,0,1,.014.171l-1.238,1.74a.678.678,0,0,0-.03.737,8.049,8.049,0,0,1,.873,2.1.665.665,0,0,0,.541.5l2.105.356a.13.13,0,0,1,.11.131v2.11ZM12,6.818A5.179,5.179,0,1,0,17.182,12,5.182,5.182,0,0,0,12,6.818m0,9A3.825,3.825,0,1,1,15.828,12,3.828,3.828,0,0,1,12,15.823" fill="#fff"/>
</svg>
