<svg xmlns="http://www.w3.org/2000/svg" xmlns:xlink="http://www.w3.org/1999/xlink" width="20" height="20" viewBox="0 0 20 20">
  <defs>
    <clipPath id="clip-path">
      <rect id="Rectangle_138029" data-name="Rectangle 138029" width="20" height="20" fill="#495057"/>
    </clipPath>
  </defs>
  <g id="Group_48558" data-name="Group 48558" clip-path="url(#clip-path)">
    <path id="Path_93204" data-name="Path 93204" d="M12.5,16.666H4.167A4.171,4.171,0,0,1,0,12.5V4.166A4.171,4.171,0,0,1,4.167,0H12.5a4.171,4.171,0,0,1,4.167,4.166V12.5A4.171,4.171,0,0,1,12.5,16.666m-8.333-15a2.5,2.5,0,0,0-2.5,2.5V12.5a2.5,2.5,0,0,0,2.5,2.5H12.5A2.5,2.5,0,0,0,15,12.5V4.166a2.5,2.5,0,0,0-2.5-2.5ZM20,15.833V5a.834.834,0,1,0-1.667,0V15.833a2.5,2.5,0,0,1-2.5,2.5H5A.834.834,0,0,0,5,20H15.833A4.173,4.173,0,0,0,20,15.833" fill="#495057"/>
  </g>
</svg>
