<svg id="Group_48368" data-name="Group 48368" xmlns="http://www.w3.org/2000/svg" xmlns:xlink="http://www.w3.org/1999/xlink" width="20" height="20" viewBox="0 0 20 20">
  <defs>
    <clipPath id="clip-path">
      <rect id="Rectangle_137963" data-name="Rectangle 137963" width="20" height="20" fill="#495057"/>
    </clipPath>
  </defs>
  <g id="Group_48356" data-name="Group 48356" clip-path="url(#clip-path)">
    <path id="Path_93179" data-name="Path 93179" d="M18.333,0H14.167A1.667,1.667,0,0,0,12.5,1.667v5.79A1.709,1.709,0,0,0,15.276,8.79l.974-.779.974.78A1.709,1.709,0,0,0,20,7.457V1.667A1.667,1.667,0,0,0,18.333,0m-.067,7.489-1.5-1.2a.833.833,0,0,0-1.042,0L14.167,7.457V1.667h4.166ZM20,11.667v4.167A4.172,4.172,0,0,1,15.833,20H4.167A4.172,4.172,0,0,1,0,15.834V6.667A4.172,4.172,0,0,1,4.167,2.5H10a.833.833,0,0,1,0,1.667H4.167A2.491,2.491,0,0,0,1.968,5.5l6.264,6.265a2.563,2.563,0,0,0,3.536,0l.715-.7a.834.834,0,1,1,1.167,1.192l-.708.691a4.187,4.187,0,0,1-5.885-.006L1.667,7.559v8.274a2.5,2.5,0,0,0,2.5,2.5H15.833a2.5,2.5,0,0,0,2.5-2.5V11.667a.833.833,0,0,1,1.667,0" fill="#495057"/>
  </g>
</svg>
