<svg xmlns="http://www.w3.org/2000/svg" width="90" height="55" viewBox="0 0 90 55">
  <g id="Group_48600" data-name="Group 48600" transform="translate(-2.52 -6.2)">
    <path id="Path_93213" data-name="Path 93213" d="M92.425,51.792a2.369,2.369,0,1,1-4.737,0,40.651,40.651,0,0,0-4.737-19.136l-3.079,3.11c-2.132,2.249-5.589-1.2-3.363-3.349l3.837-3.923A40.03,40.03,0,0,0,49.794,11.271c0,2.057,1.042,6.985-2.368,6.985s-2.179-4.784-2.368-6.985A40.027,40.027,0,0,0,14.6,28.35l3.837,3.923c2.226,2.153-1.232,5.6-3.363,3.349l-3.079-3.11A40.65,40.65,0,0,0,7.257,51.649a2.369,2.369,0,1,1-4.737,0,45,45,0,1,1,90,0ZM49.794,42.224V28.4a2.369,2.369,0,1,0-4.737,0V42.368a9.486,9.486,0,1,0,4.737,0Z" transform="translate(0 0)" fill="#0171b5"/>
  </g>
</svg>
