<svg id="Group_48383" data-name="Group 48383" xmlns="http://www.w3.org/2000/svg" xmlns:xlink="http://www.w3.org/1999/xlink" width="20.001" height="20" viewBox="0 0 20.001 20">
  <defs>
    <clipPath id="clip-path">
      <rect id="Rectangle_137969" data-name="Rectangle 137969" width="20.001" height="20" fill="#495057"/>
    </clipPath>
  </defs>
  <g id="Group_48382" data-name="Group 48382" clip-path="url(#clip-path)">
    <path id="Path_93185" data-name="Path 93185" d="M19.766,18.588l-.9-.9L17.426,16.25l2.325-2.325a.834.834,0,0,0-.3-1.372L11.968,9.839a1.667,1.667,0,0,0-2.135,2.134l2.721,7.477a.832.832,0,0,0,.6.53.823.823,0,0,0,.181.019.837.837,0,0,0,.59-.244l2.323-2.33,1.44,1.441.9.9a.834.834,0,0,0,1.178-1.179Zm-6.092-.942L11.4,11.4l6.245,2.271Zm-5.337-.972a8.337,8.337,0,1,1,8.337-8.337.834.834,0,0,1-1.667,0,6.67,6.67,0,1,0-6.67,6.671.833.833,0,1,1,0,1.667m-1.6-3.652a.838.838,0,0,1-.319-.062,5,5,0,1,1,6.542-6.532.834.834,0,1,1-1.53.662l-.011-.026A3.335,3.335,0,1,0,7.06,11.423a.834.834,0,0,1-.32,1.6Z" fill="#495057"/>
  </g>
</svg>
