<svg id="Group_48365" data-name="Group 48365" xmlns="http://www.w3.org/2000/svg" xmlns:xlink="http://www.w3.org/1999/xlink" width="20.009" height="20" viewBox="0 0 20.009 20">
  <defs>
    <clipPath id="clip-path">
      <rect id="Rectangle_137966" data-name="Rectangle 137966" width="20.009" height="20" fill="#495057"/>
    </clipPath>
  </defs>
  <g id="Group_48362" data-name="Group 48362" clip-path="url(#clip-path)">
    <path id="Path_93182" data-name="Path 93182" d="M18.724,6.745,12.952,1.212A4.19,4.19,0,0,0,7.07,1.2L1.284,6.745A4.192,4.192,0,0,0,0,9.753v6.079A4.174,4.174,0,0,0,4.169,20H15.84a4.174,4.174,0,0,0,4.169-4.168V9.753a4.191,4.191,0,0,0-1.285-3.008M8.236,2.391a2.511,2.511,0,0,1,3.55.013l5.625,5.389-5.638,5.639a2.563,2.563,0,0,1-3.536,0L2.6,7.793ZM18.342,15.832a2.5,2.5,0,0,1-2.5,2.5H4.169a2.5,2.5,0,0,1-2.5-2.5V9.753a2.5,2.5,0,0,1,.049-.482l5.341,5.341a4.188,4.188,0,0,0,5.894,0l5.341-5.341a2.5,2.5,0,0,1,.049.482Z" transform="translate(0 0)" fill="#495057"/>
  </g>
</svg>
