<svg id="Group_48386" data-name="Group 48386" xmlns="http://www.w3.org/2000/svg" xmlns:xlink="http://www.w3.org/1999/xlink" width="20" height="20" viewBox="0 0 20 20">
  <defs>
    <clipPath id="clip-path">
      <rect id="Rectangle_137965" data-name="Rectangle 137965" width="20" height="20" fill="#495057"/>
    </clipPath>
  </defs>
  <g id="Group_48360" data-name="Group 48360" clip-path="url(#clip-path)">
    <path id="Path_93181" data-name="Path 93181" d="M17.5,20h0M16.25,0H3.75A3.755,3.755,0,0,0,0,3.75V5.417a3.755,3.755,0,0,0,3.75,3.75h.417a.833.833,0,0,0,0-1.667H3.75A2.086,2.086,0,0,1,1.667,5.417V3.75A2.086,2.086,0,0,1,3.75,1.667h12.5A2.086,2.086,0,0,1,18.334,3.75V5.417A2.086,2.086,0,0,1,16.25,7.5H14.167a.833.833,0,0,0,0,1.667H16.25A3.755,3.755,0,0,0,20,5.417V3.75A3.754,3.754,0,0,0,16.25,0m-.614,15.46-3.963-1.486V10.089A2.569,2.569,0,0,0,9.586,7.534,2.5,2.5,0,0,0,6.673,10v6.3l-.833-.662a2.5,2.5,0,0,0-3.385,3.677l.465.448a.833.833,0,0,0,1.157-1.2L3.6,18.109a.833.833,0,0,1,1.129-1.226c.018.018,1.484,1.186,1.484,1.186A1.308,1.308,0,0,0,8.34,17.045V10a.835.835,0,0,1,.979-.822.9.9,0,0,1,.688.911V14.55a.835.835,0,0,0,.54.781l4.5,1.689a2.5,2.5,0,0,1,1.618,2.194A.834.834,0,0,0,17.5,20a.876.876,0,0,0,.833-.882,4.169,4.169,0,0,0-2.7-3.658Z" fill="#495057"/>
  </g>
</svg>
