<svg id="Group_48307" data-name="Group 48307" xmlns="http://www.w3.org/2000/svg" xmlns:xlink="http://www.w3.org/1999/xlink" width="28.54" height="30" viewBox="0 0 28.54 30">
  <defs>
    <clipPath id="clip-path">
      <rect id="Rectangle_137944" data-name="Rectangle 137944" width="28.54" height="30" fill="#555b6d"/>
    </clipPath>
  </defs>
  <g id="Group_48306" data-name="Group 48306" clip-path="url(#clip-path)">
    <path id="Path_93145" data-name="Path 93145" d="M14.352,30a6.017,6.017,0,0,1-5.874-4.808l-.068-.338H3.432A3.425,3.425,0,0,1,.538,23.265a3.408,3.408,0,0,1-.455-2.586L2.666,9.054A11.551,11.551,0,0,1,25.075,8.47l3.363,12.122a3.431,3.431,0,0,1-3.328,4.262h-4.8l-.068.338A6.015,6.015,0,0,1,14.352,30m-4.007-4.584a4.252,4.252,0,0,0,8.028,0l.2-.562H10.146ZM13.932,1.733a9.884,9.884,0,0,0-9.582,7.7L1.767,21.052a1.7,1.7,0,0,0,1.665,2.076H25.113a1.7,1.7,0,0,0,1.633-2.166L23.407,8.929a9.837,9.837,0,0,0-9.475-7.2" fill="#555b6d"/>
  </g>
</svg>
