<svg xmlns="http://www.w3.org/2000/svg" width="19.008" height="19" viewBox="0 0 19.008 19">
  <g id="Group_44197" data-name="Group 44197" opacity="0.7">
    <g id="Group_44190" data-name="Group 44190" transform="translate(0.5 0.5)">
      <path id="Path_88419" data-name="Path 88419" d="M8.75,14.763h1.5m3.008,0h1.5m-10.509,0h1.5m3-3.375h1.5m3.008,0h1.5m-10.509,0h1.5M.5,7.625H18.508m-4.5-3.375V.5M5,4.25V.5m-1.492,18H15.5a3.009,3.009,0,0,0,3.008-3.009V5.008A3.008,3.008,0,0,0,15.5,2H3.508A3.008,3.008,0,0,0,.5,5.008V15.491A3.009,3.009,0,0,0,3.508,18.5Z" transform="translate(-0.5 -0.5)" fill="none" stroke="#44546f" strokeLinecap="round" strokeLinejoin="round" strokeWidth="1"/>
    </g>
  </g>
</svg>
