<svg xmlns="http://www.w3.org/2000/svg" width="20.005" height="20" viewBox="0 0 20.005 20">
  <path id="Path_90180" data-name="Path 90180" d="M14.167,0a.833.833,0,0,0-.833.833c0,2.457-2.153,3.333-4.167,3.333H3.334A3.334,3.334,0,0,0,0,7.5V9.166a3.319,3.319,0,0,0,1.261,2.591L4.239,18.4A2.7,2.7,0,0,0,6.7,20a2.484,2.484,0,0,0,2.266-3.5l-1.833-4H9.167c2.014,0,4.167.876,4.167,3.333a.833.833,0,0,0,1.666,0v-15A.833.833,0,0,0,14.167,0ZM7.449,17.181A.82.82,0,0,1,6.7,18.333a1.026,1.026,0,0,1-.939-.611L3.421,12.5H5.3Zm5.886-5.016a6.44,6.44,0,0,0-4.167-1.333H3.334A1.666,1.666,0,0,1,1.667,9.166V7.5A1.666,1.666,0,0,1,3.334,5.833H9.167A6.437,6.437,0,0,0,13.334,4.5Zm6.583.71a.832.832,0,0,1-1.117.374h0l-1.666-.834a.833.833,0,1,1,.744-1.491l1.667.834a.833.833,0,0,1,.373,1.113Zm-3.159-7.5a.833.833,0,0,1,.373-1.117h0L18.8,3.424a.834.834,0,0,1,.746,1.491l-1.667.834a.834.834,0,0,1-1.119-.373h0m-.091,2.957A.833.833,0,0,1,17.5,7.5h1.667a.833.833,0,1,1,0,1.666H17.5a.833.833,0,0,1-.833-.833" fill="#fff"/>
</svg>
