<svg xmlns="http://www.w3.org/2000/svg" width="19.647" height="20" viewBox="0 0 19.647 20">
  <path id="Path_90178" data-name="Path 90178" d="M16.046,20a.5.5,0,0,1-.351-.145l-3.1-3.1a.493.493,0,0,1-.145-.351.5.5,0,0,1,.5-.5h2.167V4.095H12.949a.5.5,0,0,1-.353-.852l3.1-3.1a.5.5,0,0,1,.7,0l3.1,3.1a.5.5,0,0,1,.147.353.5.5,0,0,1-.5.5H16.977V15.9h2.169a.5.5,0,0,1,.353.852l-3.1,3.1a.494.494,0,0,1-.349.146ZM4.386,20a4.386,4.386,0,1,1,4.386-4.386A4.392,4.392,0,0,1,4.386,20Zm0-6.911a2.525,2.525,0,1,0,2.525,2.525A2.528,2.528,0,0,0,4.386,13.089Zm0-4.317A4.386,4.386,0,1,1,8.772,4.386,4.392,4.392,0,0,1,4.386,8.772Zm0-6.911A2.525,2.525,0,1,0,6.911,4.386,2.528,2.528,0,0,0,4.386,1.861Z" fill="#fff"/>
</svg>
