<svg xmlns="http://www.w3.org/2000/svg" width="21.803" height="20.001" viewBox="0 0 21.803 20.001">
  <path id="Path_89389" data-name="Path 89389" d="M21.708,9.5A10.9,10.9,0,0,0,0,10.917,10.776,10.776,0,0,0,3.415,18.83,4.393,4.393,0,0,0,6.46,20h8.872a4.53,4.53,0,0,0,3.187-1.3,10.845,10.845,0,0,0,3.19-9.2m-4.46,7.9a2.721,2.721,0,0,1-1.917.783H6.46a2.6,2.6,0,0,1-1.8-.673,8.994,8.994,0,0,1-2.845-6.593A9.1,9.1,0,0,1,4.85,4.143a8.967,8.967,0,0,1,6.037-2.31,9.534,9.534,0,0,1,1.067.06,9.078,9.078,0,0,1,5.3,15.51ZM7.09,14.808a.909.909,0,0,1-1.272,1.3A7.268,7.268,0,0,1,10.9,3.65a7.446,7.446,0,0,1,1.038.073.909.909,0,0,1,.77,1.028v0a.9.9,0,0,1-1.008.773l-.022,0A5.45,5.45,0,0,0,7.09,14.808Zm11-4.93a7.275,7.275,0,0,1-2.113,6.23.909.909,0,1,1-1.272-1.3,5.431,5.431,0,0,0,1.583-4.67.909.909,0,1,1,1.8-.26Zm-5.443.573a1.847,1.847,0,1,1-1.285-1.285L14.8,5.733A.908.908,0,1,1,16.105,7l-.022.022Z" transform="translate(0 0)" fill="#fff"/>
</svg>
