<svg id="Component_136_1" data-name="Component 136 – 1" xmlns="http://www.w3.org/2000/svg" xmlns:xlink="http://www.w3.org/1999/xlink" width="20.833" height="25" viewBox="0 0 20.833 25">
  <defs>
    <clipPath id="clip-path">
      <rect id="Rectangle_64483" data-name="Rectangle 64483" width="20.833" height="25" fill="#0171b5"/>
    </clipPath>
  </defs>
  <g id="Group_45586" data-name="Group 45586" clip-path="url(#clip-path)">
    <path id="Path_90898" data-name="Path 90898" d="M19.792,4.167H16.563A5.219,5.219,0,0,0,11.459,0H9.375a5.219,5.219,0,0,0-5.1,4.167H1.042a1.042,1.042,0,1,0,0,2.083H2.084V19.792A5.214,5.214,0,0,0,7.292,25h6.25a5.214,5.214,0,0,0,5.208-5.208V6.25h1.042a1.042,1.042,0,1,0,0-2.083M9.375,2.084h2.084a3.131,3.131,0,0,1,2.947,2.083H6.428A3.131,3.131,0,0,1,9.375,2.084m7.292,17.708a3.125,3.125,0,0,1-3.125,3.125H7.292a3.125,3.125,0,0,1-3.125-3.125V6.25h12.5Z" fill="#0171b5"/>
    <path id="Path_90899" data-name="Path 90899" d="M8.333,18.75a1.042,1.042,0,0,0,1.042-1.042v-6.25a1.042,1.042,0,0,0-2.084,0v6.25A1.042,1.042,0,0,0,8.333,18.75" fill="#0171b5"/>
    <path id="Path_90900" data-name="Path 90900" d="M12.5,18.75a1.042,1.042,0,0,0,1.042-1.042v-6.25a1.042,1.042,0,0,0-2.084,0v6.25A1.042,1.042,0,0,0,12.5,18.75" fill="#0171b5"/>
  </g>
</svg>
