<svg xmlns="http://www.w3.org/2000/svg" width="25" height="25" viewBox="0 0 25 25">
  <g id="Group_48584" data-name="Group 48584" transform="translate(-474 -7035)">
    <g id="Component_188_3" data-name="Component 188 – 3" transform="translate(475 7036)">
      <path id="Path_93205" data-name="Path 93205" d="M4.6,23A4.615,4.615,0,0,1,0,18.4V4.6A4.616,4.616,0,0,1,4.6,0h8.914a.655.655,0,0,1,0,1.309H4.6A3.293,3.293,0,0,0,1.308,4.6V18.4A3.292,3.292,0,0,0,4.6,21.687H14.789V17.412a2.629,2.629,0,0,1,2.627-2.627h4.273V9.5a.656.656,0,0,1,.6-.653h.058A.656.656,0,0,1,23,9.506v6.276a4.6,4.6,0,0,1-1.343,3.25l-2.624,2.624A4.6,4.6,0,0,1,15.8,23H4.6m12.828-6.9a1.319,1.319,0,0,0-1.318,1.317v4.279l.4-.088a3.26,3.26,0,0,0,1.6-.878L20.74,18.1a3.307,3.307,0,0,0,.878-1.6l.091-.4ZM5.587,18.071a.66.66,0,0,1-.465-.192.651.651,0,0,1-.19-.463V16.091a4.593,4.593,0,0,1,1.342-3.249L18.36.761a2.82,2.82,0,0,1,3.822.062,2.762,2.762,0,0,1,0,3.881L10.159,16.727a4.6,4.6,0,0,1-3.235,1.343H5.587M20.237,1.335a1.456,1.456,0,0,0-1.011.406L7.2,13.767a3.3,3.3,0,0,0-.963,2.324v.671h.671A3.3,3.3,0,0,0,9.232,15.8L21.254,3.778a1.443,1.443,0,0,0,0-2.031l-.006-.006a1.456,1.456,0,0,0-1.011-.406" fill="#0171b5" stroke="#0171b5" strokeWidth="0.25"/>
    </g>
    <g id="Rectangle_138031" data-name="Rectangle 138031" transform="translate(474 7035)" fill="#fff" stroke="#707070" strokeWidth="1" opacity="0">
      <rect width="25" height="25" stroke="none"/>
      <rect x="0.5" y="0.5" width="24" height="24" fill="none"/>
    </g>
  </g>
</svg>
