<svg xmlns="http://www.w3.org/2000/svg" width="17.584" height="16.109" viewBox="0 0 17.584 16.109">
  <path id="eye-crossed" d="M17.043,7.167A11.621,11.621,0,0,0,14.574,4.3l2.051-2.051a.732.732,0,1,0-1.036-1.036l-2.23,2.233A8.829,8.829,0,0,0,8.788,2.213,9.7,9.7,0,0,0,.533,7.167a3.6,3.6,0,0,0,0,3.781A11.621,11.621,0,0,0,3,13.811L.951,15.862A.732.732,0,1,0,1.987,16.9l2.235-2.235A8.829,8.829,0,0,0,8.788,15.9a9.7,9.7,0,0,0,8.255-4.954A3.6,3.6,0,0,0,17.043,7.167ZM1.781,10.181a2.137,2.137,0,0,1,0-2.247A8.291,8.291,0,0,1,8.788,3.678a7.4,7.4,0,0,1,3.491.853L10.8,6.005a3.656,3.656,0,0,0-5.068,5.068L4.044,12.766a10.051,10.051,0,0,1-2.263-2.585Zm9.2-1.124a2.2,2.2,0,0,1-2.2,2.2,2.161,2.161,0,0,1-.941-.22l2.919-2.919A2.161,2.161,0,0,1,10.985,9.057Zm-4.395,0a2.2,2.2,0,0,1,2.2-2.2,2.161,2.161,0,0,1,.941.22L6.81,10a2.161,2.161,0,0,1-.22-.941Zm9.2,1.124a8.291,8.291,0,0,1-7.007,4.256A7.4,7.4,0,0,1,5.3,13.584l1.474-1.474A3.656,3.656,0,0,0,11.84,7.041l1.692-1.692a10.051,10.051,0,0,1,2.263,2.585,2.137,2.137,0,0,1,0,2.247Z" transform="translate(0.004 -1.003)" fill="#74788d"/>
</svg>
