<svg id="Component_167_2" data-name="Component 167 – 2" xmlns="http://www.w3.org/2000/svg" width="29.637" height="22" viewBox="0 0 29.637 22">
  <g id="Group_48462" data-name="Group 48462">
    <g id="Group_48463" data-name="Group 48463" transform="translate(-20)">
      <path id="Path_93187" data-name="Path 93187" d="M14.819,22C5.541,22,1.273,14.232.186,11.851a2.04,2.04,0,0,1,0-1.7C1.273,7.768,5.541,0,14.819,0S28.363,7.768,29.451,10.149a2.044,2.044,0,0,1,0,1.7C28.363,14.232,24.093,22,14.819,22m0-20.37C6.5,1.63,2.652,8.668,1.671,10.825l-.087.191.088.191c.993,2.15,4.876,9.164,13.147,9.164s12.154-7.026,13.148-9.179L28.055,11l-.088-.192C26.974,8.655,23.091,1.63,14.819,1.63m0,15.277A5.907,5.907,0,1,1,20.725,11a5.913,5.913,0,0,1-5.907,5.907Zm0-10.185A4.279,4.279,0,1,0,19.1,11a4.25,4.25,0,0,0-4.279-4.278Z" transform="translate(20)" fill="#0171b5"/>
    </g>
  </g>
</svg>
