<svg xmlns="http://www.w3.org/2000/svg" xmlns:xlink="http://www.w3.org/1999/xlink" width="19.959" height="20" viewBox="0 0 19.959 20">
  <defs>
    <clipPath id="clip-path">
      <rect id="Rectangle_64038" data-name="Rectangle 64038" width="19.959" height="20" fill="#fff"/>
    </clipPath>
  </defs>
  <g id="Group_45069" data-name="Group 45069" clip-path="url(#clip-path)">
    <path id="Path_89391" data-name="Path 89391" d="M17.049,12.616V7.33a2.429,2.429,0,0,0,.9-.561l1.3-1.3a2.441,2.441,0,0,0,0-3.451l-1.3-1.3a2.444,2.444,0,0,0-3.453,0l-1.3,1.3a2.4,2.4,0,0,0-.561.894H7.371A3.736,3.736,0,1,0,2.5,7.3v6.051H2.33A2.332,2.332,0,0,0,0,15.676v2A2.332,2.332,0,0,0,2.33,20H4.324a2.331,2.331,0,0,0,2.329-2.329v-2a2.331,2.331,0,0,0-2.329-2.329H4.159V7.483A3.733,3.733,0,0,0,7.4,4.571h5.231a2.411,2.411,0,0,0,.561.9l1.3,1.3a2.424,2.424,0,0,0,.894.561v5.287a3.742,3.742,0,1,0,1.664,0ZM4.99,15.676v2a.665.665,0,0,1-.666.666H2.33a.667.667,0,0,1-.667-.666v-2a.667.667,0,0,1,.667-.666H4.324a.666.666,0,0,1,.666.666M3.743,5.863a2.079,2.079,0,1,1,2.079-2.08,2.082,2.082,0,0,1-2.079,2.08M14.366,4.29a.77.77,0,0,1-.227-.55.779.779,0,0,1,.227-.55l1.3-1.3a.779.779,0,0,1,1.1,0l1.3,1.3a.776.776,0,0,1,0,1.1l-1.3,1.3a.8.8,0,0,1-1.1,0Zm1.851,14.047A2.079,2.079,0,1,1,18.3,16.259a2.081,2.081,0,0,1-2.079,2.079" transform="translate(0 0)" fill="#fff"/>
  </g>
</svg>
