<svg id="Group_45104" data-name="Group 45104" xmlns="http://www.w3.org/2000/svg" xmlns:xlink="http://www.w3.org/1999/xlink" width="20.776" height="21" viewBox="0 0 20.776 21">
  <defs>
    <clipPath id="clip-path">
      <rect id="Rectangle_64057" data-name="Rectangle 64057" width="20.776" height="21" fill="#74788d"/>
    </clipPath>
  </defs>
  <g id="Group_45103" data-name="Group 45103" clip-path="url(#clip-path)">
    <path id="Path_89407" data-name="Path 89407" d="M10.041,13.125A.875.875,0,0,0,9.167,14v2.625A2.625,2.625,0,0,1,6.541,19.25H4.375A2.625,2.625,0,0,1,1.75,16.625V4.375A2.625,2.625,0,0,1,4.375,1.75H6.541A2.625,2.625,0,0,1,9.167,4.375V7a.875.875,0,1,0,1.75,0V4.375A4.38,4.38,0,0,0,6.541,0H4.375A4.38,4.38,0,0,0,0,4.375v12.25A4.38,4.38,0,0,0,4.375,21H6.541a4.38,4.38,0,0,0,4.375-4.375V14a.875.875,0,0,0-.875-.875" fill="#74788d"/>
    <path id="Path_89408" data-name="Path 89408" d="M20.634,9.268,16.621,5.255A.875.875,0,0,0,15.362,6.47l.022.022,3.729,3.73-13.238.026a.875.875,0,1,0,0,1.75l13.289-.027-3.783,3.783A.875.875,0,0,0,16.6,17.014l.022-.022,4.013-4.013a2.624,2.624,0,0,0,0-3.712" transform="translate(-0.625 -0.623)" fill="#74788d"/>
  </g>
</svg>
