<svg xmlns="http://www.w3.org/2000/svg" width="30" height="30" viewBox="0 0 30 30">
  <path id="Path_93143" data-name="Path 93143" d="M28.465,11.851l-2.106-.358a11.978,11.978,0,0,0-.846-2.044l1.241-1.735a1.847,1.847,0,0,0-.2-2.388L24.686,3.46a1.839,1.839,0,0,0-1.31-.546,1.821,1.821,0,0,0-1.072.346L20.562,4.5a11.669,11.669,0,0,0-2.118-.871l-.35-2.081A1.852,1.852,0,0,0,16.264,0H13.625a1.851,1.851,0,0,0-1.83,1.548l-.364,2.13a11.558,11.558,0,0,0-2.036.859L7.672,3.3a1.853,1.853,0,0,0-2.388.2L3.409,5.364a1.858,1.858,0,0,0-.2,2.388L4.463,9.514a11.66,11.66,0,0,0-.834,2.048l-2.081.352A1.852,1.852,0,0,0,0,13.744v2.638a1.851,1.851,0,0,0,1.548,1.83l2.131.364a11.694,11.694,0,0,0,.858,2.038L3.3,22.33a1.846,1.846,0,0,0,.2,2.387l1.867,1.868a1.844,1.844,0,0,0,2.382.2l1.76-1.254a11.807,11.807,0,0,0,1.98.815l.352,2.106A1.851,1.851,0,0,0,13.675,30H16.32a1.852,1.852,0,0,0,1.83-1.548l.356-2.106A11.9,11.9,0,0,0,20.55,25.5l1.736,1.241a1.851,1.851,0,0,0,2.387-.2l1.868-1.867a1.858,1.858,0,0,0,.2-2.388L25.5,20.543a11.844,11.844,0,0,0,.846-2.042l2.1-.352A1.851,1.851,0,0,0,30,16.319V13.681a1.827,1.827,0,0,0-1.535-1.83m-.144,4.468a.162.162,0,0,1-.138.163l-2.633.439a.842.842,0,0,0-.677.62,10.034,10.034,0,0,1-1.09,2.626.848.848,0,0,0,.037.922l1.548,2.18a.169.169,0,0,1-.019.212L23.483,25.35a.163.163,0,0,1-.119.05.153.153,0,0,1-.095-.032L21.095,23.82a.847.847,0,0,0-.92-.037,10.045,10.045,0,0,1-2.627,1.091.833.833,0,0,0-.62.677l-.444,2.632a.163.163,0,0,1-.163.138H13.681a.163.163,0,0,1-.163-.138L13.08,25.55a.842.842,0,0,0-.62-.677,10.393,10.393,0,0,1-2.57-1.054.874.874,0,0,0-.426-.113.823.823,0,0,0-.488.157l-2.194,1.56a.183.183,0,0,1-.094.032.17.17,0,0,1-.119-.05L4.7,23.538a.168.168,0,0,1-.018-.212l1.541-2.162a.858.858,0,0,0,.038-.928,9.933,9.933,0,0,1-1.1-2.62A.858.858,0,0,0,4.481,17L1.83,16.544a.162.162,0,0,1-.138-.163V13.744a.162.162,0,0,1,.138-.163l2.614-.439a.846.846,0,0,0,.683-.626A10.048,10.048,0,0,1,6.2,9.883a.837.837,0,0,0-.043-.916L4.594,6.774a.171.171,0,0,1,.019-.212L6.48,4.694a.16.16,0,0,1,.12-.05.151.151,0,0,1,.094.031L8.856,6.217a.86.86,0,0,0,.928.037,9.93,9.93,0,0,1,2.62-1.1.86.86,0,0,0,.62-.677l.451-2.651a.162.162,0,0,1,.162-.138h2.639a.162.162,0,0,1,.163.138l.439,2.612a.847.847,0,0,0,.626.684,10.146,10.146,0,0,1,2.688,1.1.848.848,0,0,0,.922-.038l2.162-1.554A.193.193,0,0,1,23.37,4.6a.164.164,0,0,1,.119.05l1.868,1.867a.17.17,0,0,1,.018.214L23.827,8.905a.847.847,0,0,0-.037.922,10.061,10.061,0,0,1,1.091,2.626.831.831,0,0,0,.677.62l2.632.445a.162.162,0,0,1,.138.163v2.638ZM15,8.522A6.474,6.474,0,1,0,21.478,15,6.478,6.478,0,0,0,15,8.522m0,11.256A4.781,4.781,0,1,1,19.786,15,4.785,4.785,0,0,1,15,19.778" fill="#555b6d"/>
</svg>
